#Comment line ignore any data following # character 
#Hierarchical Translation and Rotation (.htr) file 
[Header]	
#Header keywords are followed by a single value 
FileType HTR		#Single word string
DataType HTRS		#Translation followed by rotation and scale data
FileVersion 1		#integer
NumSegments 64		#integer
NumFrames 3		#integer
DataFrameRate 30		#integer, data frame rate in this file
EulerRotationOrder ZYX
CalibrationUnits mm
RotationUnits Degrees
GlobalAxisofGravity Y
BoneLengthAxis Y
ScaleFactor 1.00
[SegmentNames&Hierarchy]
#CHILD	PARENT
Pinger_Root GLOBAL
Pelvis Pinger_Root
L_Hip Pelvis
R_Hip Pelvis
Rear_Leg01 Pelvis
Spine1 Pelvis
L_Leg01 L_Hip
L_Leg02 L_Leg01
L_Leg03 L_Leg02
L_Foot L_Leg03
L_Toe1_01 L_Foot
L_Toe2_01 L_Foot
L_Toe3_01 L_Foot
planeAlignerLeft L_Foot
L_Toe1_02 L_Toe1_01
L_Toe1_03 L_Toe1_02
L_Toe2_02 L_Toe2_01
L_Toe2_03 L_Toe2_02
L_Toe3_02 L_Toe3_01
L_Toe3_03 L_Toe3_02
planeLockWeightLeft planeAlignerLeft
R_Leg01 R_Hip
R_Leg02 R_Leg01
R_Leg03 R_Leg02
R_Foot R_Leg03
planeAlignerRight R_Foot
R_Toe1_01 R_Foot
R_Toe2_01 R_Foot
R_Toe3_01 R_Foot
planeLockWeightRight planeAlignerRight
R_Toe1_02 R_Toe1_01
R_Toe1_03 R_Toe1_02
R_Toe2_02 R_Toe2_01
R_Toe2_03 R_Toe2_02
R_Toe3_02 R_Toe3_01
R_Toe3_03 R_Toe3_02
Rear_Leg02 Rear_Leg01
Rear_Leg03 Rear_Leg02
Rear_Leg04 Rear_Leg03
Rear_Foot Rear_Leg04
planeAlignerCenter Rear_Foot
Rear_Toe1_01 Rear_Foot
Rear_Toe2_01 Rear_Foot
Rear_Toe3_01 Rear_Foot
planeLockWeightCenter planeAlignerCenter
Rear_Toe1_02 Rear_Toe1_01
Rear_Toe1_03 Rear_Toe1_02
Rear_Toe2_02 Rear_Toe2_01
Rear_Toe2_03 Rear_Toe2_02
Rear_Toe3_02 Rear_Toe3_01
Rear_Toe3_03 Rear_Toe3_02
Back_Bone Spine1
Head Spine1
Motor_Bone Back_Bone
Ping_Mechanism Back_Bone
BN_LookIK Head
bottomMouth Head
L_Mouth01 Head
L_mouthFront Head
mouthGun Head
R_Mouth01 Head
R_mouthFront Head
TopMouth Head
weapon_bone Head
[BasePosition]
#SegmentName Tx, Ty, Tz, Rx, Ry, Rz, BoneLength
Pinger_Root 0.000000 0.000000 0.000000 -90.000000 0.000000 0.000000 10.000000 
Pelvis 0.000000 0.000000 0.000000 0.000000 0.000000 0.000000 10.000000 
L_Hip 0.000000 0.000000 0.000000 0.000000 0.000000 0.000000 10.000000 
R_Hip 0.000000 0.000000 0.000000 0.000000 0.000000 0.000000 10.000000 
Rear_Leg01 0.000000 0.000000 0.000000 0.000000 0.000000 0.000000 10.000000 
Spine1 0.000000 0.000000 0.000000 0.000000 0.000000 0.000000 10.000000 
L_Leg01 0.000000 0.000000 0.000000 0.000000 0.000000 0.000000 10.000000 
L_Leg02 0.000000 0.000000 0.000000 0.000000 0.000000 0.000000 10.000000 
L_Leg03 0.000000 0.000000 0.000000 0.000000 0.000000 0.000000 10.000000 
L_Foot 0.000000 0.000000 0.000000 0.000000 0.000000 0.000000 10.000000 
L_Toe1_01 0.000000 0.000000 0.000000 0.000000 0.000000 0.000000 10.000000 
L_Toe2_01 0.000000 0.000000 0.000000 0.000000 0.000000 0.000000 10.000000 
L_Toe3_01 0.000000 0.000000 0.000000 0.000000 0.000000 0.000000 10.000000 
planeAlignerLeft 0.000000 0.000000 0.000000 0.000000 0.000000 0.000000 10.000000 
L_Toe1_02 0.000000 0.000000 0.000000 0.000000 0.000000 0.000000 10.000000 
L_Toe1_03 0.000000 0.000000 0.000000 0.000000 0.000000 0.000000 10.000000 
L_Toe2_02 0.000000 0.000000 0.000000 0.000000 0.000000 0.000000 10.000000 
L_Toe2_03 0.000000 0.000000 0.000000 0.000000 0.000000 0.000000 10.000000 
L_Toe3_02 0.000000 0.000000 0.000000 0.000000 0.000000 0.000000 10.000000 
L_Toe3_03 0.000000 0.000000 0.000000 0.000000 0.000000 0.000000 10.000000 
planeLockWeightLeft 0.000000 0.000000 0.000000 0.000000 0.000000 0.000000 10.000000 
R_Leg01 0.000000 0.000000 0.000000 0.000000 0.000000 0.000000 10.000000 
R_Leg02 0.000000 0.000000 0.000000 0.000000 0.000000 0.000000 10.000000 
R_Leg03 0.000000 0.000000 0.000000 0.000000 0.000000 0.000000 10.000000 
R_Foot 0.000000 0.000000 0.000000 0.000000 0.000000 0.000000 10.000000 
planeAlignerRight 0.000000 0.000000 0.000000 0.000000 0.000000 0.000000 10.000000 
R_Toe1_01 0.000000 0.000000 0.000000 0.000000 0.000000 0.000000 10.000000 
R_Toe2_01 0.000000 0.000000 0.000000 0.000000 0.000000 0.000000 10.000000 
R_Toe3_01 0.000000 0.000000 0.000000 0.000000 0.000000 0.000000 10.000000 
planeLockWeightRight 0.000000 0.000000 0.000000 0.000000 0.000000 0.000000 10.000000 
R_Toe1_02 0.000000 0.000000 0.000000 0.000000 0.000000 0.000000 10.000000 
R_Toe1_03 0.000000 0.000000 0.000000 0.000000 0.000000 0.000000 10.000000 
R_Toe2_02 0.000000 0.000000 0.000000 0.000000 0.000000 0.000000 10.000000 
R_Toe2_03 0.000000 0.000000 0.000000 0.000000 0.000000 0.000000 10.000000 
R_Toe3_02 0.000000 0.000000 0.000000 0.000000 0.000000 0.000000 10.000000 
R_Toe3_03 0.000000 0.000000 0.000000 0.000000 0.000000 0.000000 10.000000 
Rear_Leg02 0.000000 0.000000 0.000000 0.000000 0.000000 0.000000 10.000000 
Rear_Leg03 0.000000 0.000000 0.000000 0.000000 0.000000 0.000000 10.000000 
Rear_Leg04 0.000000 0.000000 0.000000 0.000000 0.000000 0.000000 10.000000 
Rear_Foot 0.000000 0.000000 0.000000 0.000000 0.000000 0.000000 10.000000 
planeAlignerCenter 0.000000 0.000000 0.000000 0.000000 0.000000 0.000000 10.000000 
Rear_Toe1_01 0.000000 0.000000 0.000000 0.000000 0.000000 0.000000 10.000000 
Rear_Toe2_01 0.000000 0.000000 0.000000 0.000000 0.000000 0.000000 10.000000 
Rear_Toe3_01 0.000000 0.000000 0.000000 0.000000 0.000000 0.000000 10.000000 
planeLockWeightCenter 0.000000 0.000000 0.000000 0.000000 0.000000 0.000000 10.000000 
Rear_Toe1_02 0.000000 0.000000 0.000000 0.000000 0.000000 0.000000 10.000000 
Rear_Toe1_03 0.000000 0.000000 0.000000 0.000000 0.000000 0.000000 10.000000 
Rear_Toe2_02 0.000000 0.000000 0.000000 0.000000 0.000000 0.000000 10.000000 
Rear_Toe2_03 0.000000 0.000000 0.000000 0.000000 0.000000 0.000000 10.000000 
Rear_Toe3_02 0.000000 0.000000 0.000000 0.000000 0.000000 0.000000 10.000000 
Rear_Toe3_03 0.000000 0.000000 0.000000 0.000000 0.000000 0.000000 10.000000 
Back_Bone 0.000000 0.000000 0.000000 0.000000 0.000000 0.000000 10.000000 
Head 0.000000 0.000000 0.000000 0.000000 0.000000 0.000000 10.000000 
Motor_Bone 0.000000 0.000000 0.000000 0.000000 0.000000 0.000000 10.000000 
Ping_Mechanism 0.000000 0.000000 0.000000 0.000000 0.000000 0.000000 10.000000 
BN_LookIK 0.000000 0.000000 0.000000 0.000000 0.000000 0.000000 10.000000 
bottomMouth 0.000000 0.000000 0.000000 0.000000 0.000000 0.000000 10.000000 
L_Mouth01 0.000000 0.000000 0.000000 0.000000 0.000000 0.000000 10.000000 
L_mouthFront 0.000000 0.000000 0.000000 0.000000 0.000000 0.000000 10.000000 
mouthGun 0.000000 0.000000 0.000000 0.000000 0.000000 0.000000 10.000000 
R_Mouth01 0.000000 0.000000 0.000000 0.000000 0.000000 0.000000 10.000000 
R_mouthFront 0.000000 0.000000 0.000000 0.000000 0.000000 0.000000 10.000000 
TopMouth 0.000000 0.000000 0.000000 0.000000 0.000000 0.000000 10.000000 
weapon_bone 0.000000 0.000000 0.000000 0.000000 0.000000 0.000000 10.000000 
#Beginning of Data. Separated by tabs
#Fr	Tx	Ty	Tz	Rx	Ry	Rz	SF
[Pinger_Root]
189 0.000000 0.000000 0.000000 -0.000075 -0.000000 -0.000020 0.000000
190 0.000000 0.000000 0.000000 -0.000075 -0.000000 -0.000020 0.000000
191 0.000000 0.000000 0.000000 -0.000075 -0.000000 -0.000020 0.000000
[Pelvis]
189 1392.819824 1002.307678 4553.651367 47.342110 -77.438980 -50.814568 4866.241699
190 1391.199829 1002.307556 4622.350098 49.126148 -77.038521 -52.520664 4930.129883
191 1387.123169 1002.307556 4688.921387 50.488338 -76.832062 -53.607128 4991.464355
[L_Hip]
189 5.766392 125.831482 872.656799 -121.855164 -74.309326 30.031721 881.701050
190 5.766392 125.831482 872.656799 -121.855164 -74.309326 30.031721 881.701050
191 5.766392 125.831482 872.656799 -121.855164 -74.309326 30.031721 881.701050
[R_Hip]
189 5.765438 125.836372 -872.654907 -61.925797 72.286087 26.071259 881.699829
190 5.765438 125.836372 -872.654907 -61.927914 72.286354 26.069515 881.699829
191 5.765438 125.836372 -872.654907 -61.929989 72.286621 26.067772 881.699829
[Rear_Leg01]
189 -192.298416 -925.602966 -0.001907 171.271362 -7.692816 -118.132492 945.367432
190 -192.298416 -925.602966 -0.001907 171.527420 -7.659652 -117.968758 945.367432
191 -192.298416 -925.602966 -0.001907 171.824570 -7.834287 -118.054626 945.367432
[Spine1]
189 290.604584 5.007505 0.000477 0.000723 0.059191 27.119955 290.647736
190 290.604584 5.007505 0.000477 0.000704 0.037195 27.730019 290.647736
191 290.604584 5.007505 0.000477 0.000220 0.024596 28.099636 290.647736
[L_Leg01]
189 761.932007 -0.002384 -0.069261 85.282402 1.508020 -81.595108 761.932068
190 761.932007 -0.002384 -0.069261 83.165886 6.403774 -82.921585 761.932068
191 761.932007 -0.002384 -0.069261 81.021324 11.918823 -84.825851 761.932068
[L_Leg02]
189 1441.140503 -0.000954 -0.000715 2.272601 -0.018981 -94.983063 1441.140503
190 1441.140503 -0.000954 -0.000715 1.340608 -0.149903 -84.473106 1441.140503
191 1441.140503 -0.000954 -0.000715 0.314604 -0.179290 -71.728050 1441.140503
[L_Leg03]
189 1686.963989 -0.000715 -0.000954 -0.055650 0.024988 125.196587 1686.963989
190 1686.963989 -0.000715 -0.000954 -0.042919 0.019485 121.771332 1686.963989
191 1686.963989 -0.000715 -0.000954 -0.027468 0.010282 117.352432 1686.963989
[L_Foot]
189 3041.570068 -30.715107 11.297464 -6.567703 25.775057 43.399052 3041.746094
190 3041.570068 -30.715107 11.297464 -7.868999 26.111355 44.907589 3041.746094
191 3041.570068 -30.715107 11.297464 -8.925121 26.237970 45.306084 3041.746094
[L_Toe1_01]
189 -188.216690 -224.732346 -21.137953 92.842934 -12.733624 -164.073227 293.899567
190 -188.216690 -224.732346 -21.137953 92.888474 -12.564063 -164.254211 293.899567
191 -188.216690 -224.732346 -21.137953 92.933449 -12.394363 -164.434921 293.899567
[L_Toe2_01]
189 200.746536 -219.926590 148.838394 -85.257286 -30.488989 -60.459484 332.896027
190 200.746536 -219.926590 148.838394 -85.352493 -30.307011 -60.382671 332.896027
191 200.746536 -219.926590 148.838394 -85.447258 -30.124926 -60.306358 332.896027
[L_Toe3_01]
189 188.832520 -219.859131 -191.078659 -98.523155 6.394643 -74.616776 347.140900
190 188.832520 -219.859131 -191.078659 -98.592651 6.577550 -74.623184 347.140900
191 188.832520 -219.859131 -191.078659 -98.662186 6.760460 -74.629814 347.140900
[planeAlignerLeft]
189 0.812531 -811.448792 -0.314951 0.000000 -90.000000 -90.001900 811.449280
190 0.812531 -811.448792 -0.314951 0.000000 -90.000000 -90.001900 811.449280
191 0.812531 -811.448792 -0.314951 0.000000 -90.000000 -90.001900 811.449280
[L_Toe1_02]
189 413.761139 0.000477 0.000000 0.000203 -25.410625 -0.000182 413.761139
190 413.761139 0.000477 0.000000 0.000203 -25.410625 -0.000182 413.761139
191 413.761139 0.000477 0.000000 0.000203 -25.410625 -0.000182 413.761139
[L_Toe1_03]
189 464.317322 0.000358 -0.000089 0.003092 45.371655 0.003092 464.317322
190 464.317322 0.000358 -0.000089 0.003149 46.230015 0.003149 464.317322
191 464.317322 0.000358 -0.000089 0.003208 47.088120 0.003208 464.317322
[L_Toe2_02]
189 342.235809 -0.000477 0.000238 -0.002428 -56.255604 -0.002428 342.235809
190 342.235809 -0.000477 0.000238 -0.002427 -56.351501 -0.002427 342.235809
191 342.235809 -0.000477 0.000238 -0.002426 -56.447388 -0.002426 342.235809
[L_Toe2_03]
189 420.210846 -0.000715 0.000000 -0.000112 55.570251 -0.003772 420.210846
190 420.210846 -0.000715 0.000000 -0.000121 55.719265 -0.003780 420.210846
191 420.210846 -0.000715 0.000000 -0.000130 55.868286 -0.003787 420.210846
[L_Toe3_02]
189 329.270111 0.000954 0.000000 0.001182 -76.114891 0.001182 329.270111
190 329.270111 0.000954 0.000000 0.001182 -75.992661 0.001182 329.270111
191 329.270111 0.000954 0.000000 0.001183 -75.870392 0.001183 329.270111
[L_Toe3_03]
189 439.137451 -0.001907 0.000954 -0.029297 87.609192 -0.025800 439.137451
190 439.137451 -0.001907 0.000954 -0.013247 87.246078 -0.010332 439.137451
191 439.137451 -0.001907 0.000954 -0.000868 86.882538 0.001464 439.137451
[planeLockWeightLeft]
189 -0.000954 0.000238 -0.000305 -0.011826 -0.004376 0.005620 0.001029
190 -0.000954 0.000238 -0.000305 -0.011826 -0.004376 0.005620 0.001029
191 -0.000954 0.000238 -0.000305 -0.011826 -0.004376 0.005620 0.001029
[R_Leg01]
189 761.455627 -0.001907 -0.000358 103.066727 8.114742 101.511200 761.455688
190 761.455627 -0.001907 -0.000358 103.397591 12.145803 102.439545 761.455688
191 761.455627 -0.001907 -0.000358 103.802299 16.170959 103.408707 761.455688
[R_Leg02]
189 1441.140625 0.000000 -0.000238 -0.238608 0.143182 -74.978416 1441.140625
190 1441.140625 0.000000 -0.000238 -0.129312 0.171419 -67.030396 1441.140625
191 1441.140625 0.000000 -0.000238 -0.022056 0.193801 -58.755943 1441.140625
[R_Leg03]
189 1686.963989 0.000954 0.001431 0.043017 -0.023349 122.223846 1686.963989
190 1686.963989 0.000954 0.001431 0.034363 -0.016146 119.093185 1686.963989
191 1686.963989 0.000954 0.001431 0.021970 -0.008615 115.764290 1686.963989
[R_Foot]
189 3041.560059 -30.531288 -11.204481 -10.435768 -26.010994 56.130970 3041.734131
190 3041.560059 -30.531288 -11.204481 -10.303656 -25.999689 54.784340 3041.734131
191 3041.560059 -30.531288 -11.204481 -10.106283 -25.987648 53.589355 3041.734131
[planeAlignerRight]
189 -0.635147 -812.270569 -0.364304 0.000000 -89.960434 -90.005180 812.270874
190 -0.635147 -812.270569 -0.364304 0.000000 -89.960434 -90.005180 812.270874
191 -0.635147 -812.270569 -0.364304 0.000000 -89.960434 -90.005180 812.270874
[R_Toe1_01]
189 -188.383347 -224.864899 21.052242 91.784531 -8.904771 -177.207199 294.101532
190 -188.383347 -224.864899 21.052242 91.792030 -8.875108 -177.222916 294.101532
191 -188.383347 -224.864899 21.052242 91.799545 -8.845447 -177.238632 294.101532
[R_Toe2_01]
189 200.637817 -220.002121 -148.787384 -100.298889 20.971674 -59.408234 332.857574
190 200.637817 -220.002121 -148.787384 -100.286873 20.975594 -59.389061 332.857574
191 200.637817 -220.002121 -148.787384 -100.274834 20.979500 -59.369896 332.857574
[R_Toe3_01]
189 188.606735 -220.092957 191.126343 -81.051430 -24.981205 -62.293896 347.192566
190 188.606735 -220.092957 191.126343 -81.054131 -24.991669 -62.262825 347.192566
191 188.606735 -220.092957 191.126343 -81.056824 -25.002142 -62.231754 347.192566
[planeLockWeightRight]
189 -0.000477 0.000000 0.000000 -0.011823 -0.004379 -0.000027 0.000477
190 -0.000477 0.000000 0.000000 -0.011823 -0.004379 -0.000027 0.000477
191 -0.000477 0.000000 0.000000 -0.011823 -0.004379 -0.000027 0.000477
[R_Toe1_02]
189 413.762085 0.000477 -0.000119 0.001387 -25.527802 0.001387 413.762085
190 413.762085 0.000477 -0.000119 0.001387 -25.529427 0.001387 413.762085
191 413.762085 0.000477 -0.000119 0.001387 -25.531054 0.001387 413.762085
[R_Toe1_03]
189 464.317810 0.000000 0.001088 0.005018 62.950386 0.005018 464.317810
190 464.317810 0.000000 0.001088 0.005017 62.945152 0.005017 464.317810
191 464.317810 0.000000 0.001088 0.005016 62.939926 0.005016 464.317810
[R_Toe2_02]
189 342.234741 -0.000954 0.000238 0.001200 -65.860756 0.001200 342.234741
190 342.234741 -0.000954 0.000238 0.001200 -65.901985 0.001200 342.234741
191 342.234741 -0.000954 0.000238 0.001200 -65.890579 0.001200 342.234741
[R_Toe2_03]
189 420.210846 0.000715 -0.000268 -0.005242 70.929268 -0.001697 420.210846
190 420.210846 0.000715 -0.000268 -0.005242 70.925957 -0.001696 420.210846
191 420.210846 0.000715 -0.000268 -0.005241 70.922646 -0.001695 420.210846
[R_Toe3_02]
189 329.270355 -0.000477 -0.000954 0.001184 -74.900291 0.001184 329.270355
190 329.270355 -0.000477 -0.000954 0.001184 -74.947983 0.001184 329.270355
191 329.270355 -0.000477 -0.000954 0.001184 -74.952499 0.001184 329.270355
[R_Toe3_03]
189 439.137939 0.000238 0.001431 -0.013482 84.383751 -0.009981 439.137939
190 439.137939 0.000238 0.001431 -0.013511 84.397659 -0.010010 439.137939
191 439.137939 0.000238 0.001431 -0.013540 84.411560 -0.010039 439.137939
[Rear_Leg02]
189 1162.777710 -0.029802 0.005960 -0.245840 8.207359 -71.904655 1162.777710
190 1162.777710 -0.029802 0.005960 0.114370 8.209696 -69.435410 1162.777710
191 1162.777710 -0.029802 0.005960 0.474339 8.196671 -66.966248 1162.777710
[Rear_Leg03]
189 607.192505 -0.013351 -0.073195 0.006534 -0.001919 60.952034 607.192505
190 607.192505 -0.013351 -0.073195 0.006551 -0.001862 59.940300 607.192505
191 607.192505 -0.013351 -0.073195 0.006567 -0.001804 58.928467 607.192505
[Rear_Leg04]
189 995.874512 -0.020504 -0.011921 -0.039611 -0.017392 51.863682 995.874573
190 995.874512 -0.020504 -0.011921 -0.039323 -0.018047 49.967575 995.874573
191 995.874512 -0.020504 -0.011921 -0.039014 -0.018692 48.071487 995.874573
[Rear_Foot]
189 3096.176270 -0.067472 -0.041425 156.603836 70.246605 -23.726259 3096.176270
190 3096.176270 -0.067472 -0.041425 156.338791 70.433601 -23.904854 3096.176270
191 3096.176270 -0.067472 -0.041425 156.069519 70.620361 -24.087723 3096.176270
[planeAlignerCenter]
189 0.350077 0.966311 -838.790894 0.000009 0.000003 -179.999985 838.791565
190 0.350077 0.966311 -838.790894 0.000009 0.000003 -179.999985 838.791565
191 0.350077 0.966311 -838.790894 0.000009 0.000003 -179.999985 838.791565
[Rear_Toe1_01]
189 0.653352 83.966492 -371.173737 4.797952 26.254848 103.409508 380.553192
190 0.653352 83.966492 -371.173737 4.795558 26.214886 103.410172 380.553192
191 0.653352 83.966492 -371.173737 4.793167 26.174925 103.410843 380.553192
[Rear_Toe2_01]
189 178.200760 -294.826019 -362.060547 -8.536141 19.455027 -73.308388 499.765686
190 178.200760 -294.826019 -362.060547 -8.535754 19.448801 -73.311989 499.765686
191 178.200760 -294.826019 -362.060547 -8.535364 19.442572 -73.315575 499.765686
[Rear_Toe3_01]
189 -153.359680 -308.780914 -362.060852 4.403269 16.634007 -119.409142 499.952881
190 -153.359680 -308.780914 -362.060852 4.406679 16.596210 -119.401649 499.952881
191 -153.359680 -308.780914 -362.060852 4.410085 16.558418 -119.394196 499.952881
[planeLockWeightCenter]
189 -0.000062 0.000238 0.000000 -0.011814 -0.004373 -0.000015 0.000246
190 -0.000062 0.000238 0.000000 -0.011814 -0.004373 -0.000015 0.000246
191 -0.000062 0.000238 0.000000 -0.011814 -0.004373 -0.000015 0.000246
[Rear_Toe1_02]
189 379.707825 0.194073 0.000477 0.001332 -33.491882 0.001332 379.707855
190 379.707825 0.194073 0.000477 0.001332 -33.496906 0.001332 379.707855
191 379.707825 0.194073 0.000477 0.001332 -33.501938 0.001332 379.707855
[Rear_Toe1_03]
189 500.129700 0.165701 0.000119 -0.004610 66.519066 -0.001039 500.129761
190 500.129700 0.165701 0.000119 -0.004619 66.590538 -0.001048 500.129761
191 500.129700 0.165701 0.000119 -0.004627 66.662018 -0.001056 500.129761
[Rear_Toe2_02]
189 340.494507 0.000238 -0.000954 0.001179 -79.248451 0.001179 340.494507
190 340.494507 0.000238 -0.000954 0.001179 -79.227638 0.001179 340.494507
191 340.494507 0.000238 -0.000954 0.001179 -79.206772 0.001179 340.494507
[Rear_Toe2_03]
189 433.103577 0.000000 0.000238 0.034244 86.071854 0.034244 433.103546
190 433.103577 0.000000 0.000238 0.033844 86.025513 0.033844 433.103546
191 433.103577 0.000000 0.000238 0.033454 85.978928 0.033454 433.103546
[Rear_Toe3_02]
189 340.494141 -0.000358 -0.000477 -0.002470 -50.264114 -0.002470 340.494171
190 340.494141 -0.000358 -0.000477 -0.002471 -50.208202 -0.002471 340.494171
191 340.494141 -0.000358 -0.000477 -0.002471 -50.152298 -0.002471 340.494171
[Rear_Toe3_03]
189 433.103577 0.001431 -0.000238 0.000405 44.625221 -0.003385 433.103546
190 433.103577 0.001431 -0.000238 0.000407 44.564941 -0.003384 433.103546
191 433.103577 0.001431 -0.000238 0.000409 44.504677 -0.003382 433.103546
[Back_Bone]
189 1312.175781 -701.934692 0.000954 0.010411 0.001952 -85.634178 1488.125488
190 1312.175781 -701.934692 0.000954 0.010841 0.001936 -85.635330 1488.125488
191 1312.175781 -701.934692 0.000954 0.011271 0.001920 -85.636459 1488.125488
[Head]
189 1406.159424 809.709290 0.001431 -0.012876 1.795449 18.577572 1622.625488
190 1406.159424 809.709290 0.001431 -0.007951 1.394136 17.579332 1622.625488
191 1406.159424 809.709290 0.001431 -0.008057 1.070176 16.768990 1622.625488
[Motor_Bone]
189 1158.364380 -417.834747 0.000477 -0.095385 0.076104 -105.915703 1231.419434
190 1158.364380 -417.834747 0.000477 -0.095385 0.076104 -105.915703 1231.419434
191 1158.364380 -417.834747 0.000477 -0.095385 0.076104 -105.915703 1231.419434
[Ping_Mechanism]
189 1197.707886 -423.721741 0.008392 0.000103 -0.000053 82.120995 1270.450439
190 1195.884399 -422.614746 0.006459 0.000103 -0.000053 82.120995 1268.362183
191 1194.060669 -421.507782 0.004526 0.000103 -0.000053 82.120995 1266.273926
[BN_LookIK]
189 193.241119 1380.371704 -0.002861 0.000000 89.965736 -31.038179 1393.832153
190 193.241119 1380.371704 -0.002861 0.000000 89.965736 -31.038179 1393.832153
191 193.241119 1380.371704 -0.002861 0.000000 89.965736 -31.038179 1393.832153
[bottomMouth]
189 -435.092926 615.759399 -0.000954 -0.000022 0.000016 73.527184 753.966492
190 -435.092926 615.759399 -0.000954 -0.000022 0.000016 73.527184 753.966492
191 -435.092926 615.759399 -0.000954 -0.000022 0.000016 73.527184 753.966492
[L_Mouth01]
189 554.440979 7.658243 838.222046 150.204178 23.759130 109.605339 1005.027161
190 554.440979 7.658243 838.222046 150.204178 23.759130 109.605339 1005.027161
191 554.440979 7.658243 838.222046 150.204178 23.759130 109.605339 1005.027161
[L_mouthFront]
189 551.629089 934.514771 339.150421 0.000081 2.804060 79.119301 1136.941284
190 551.629089 934.514771 339.150421 0.000081 2.804060 79.119301 1136.941284
191 551.629089 934.514771 339.150421 0.000081 2.804060 79.119301 1136.941284
[mouthGun]
189 55.332661 1627.420898 0.000000 0.000023 0.000009 -11.038128 1628.361328
190 55.332661 1627.420898 0.000000 0.000023 0.000009 -11.038128 1628.361328
191 55.332661 1627.420898 0.000000 0.000023 0.000009 -11.038128 1628.361328
[R_Mouth01]
189 554.442383 7.659197 -838.223938 29.795891 -23.759109 109.605331 1005.029541
190 554.442383 7.659197 -838.223938 29.795891 -23.759109 109.605331 1005.029541
191 554.442383 7.659197 -838.223938 29.795891 -23.759109 109.605331 1005.029541
[R_mouthFront]
189 551.629089 934.514282 -339.151367 0.000029 -2.803930 79.119133 1136.941162
190 551.629089 934.514282 -339.151367 0.000029 -2.803930 79.119133 1136.941162
191 551.629089 934.514282 -339.151367 0.000029 -2.803930 79.119133 1136.941162
[TopMouth]
189 461.269867 -56.106091 -0.008583 -0.000059 -0.000268 92.025169 464.669525
190 461.269867 -56.106091 -0.008583 -0.000059 -0.000268 92.025169 464.669525
191 461.269867 -56.106091 -0.008583 -0.000059 -0.000268 92.025169 464.669525
[weapon_bone]
189 -987.239868 1448.372803 0.001431 0.000000 89.965736 -31.038221 1752.833740
190 -987.239868 1448.372803 0.001431 0.000000 89.965736 -31.038221 1752.833740
191 -987.239868 1448.372803 0.001431 0.000000 89.965736 -31.038221 1752.833740
